# xmcd
#
# Track frame offsets:
#	150
#	17387
#	30115
#	44320
#	60475
#	75420
#	95065
#	111650
#	131447
#	151185
#	165987
#	181330
#	199107
#	215777
#	232950
#
# Disc length: 3301 seconds
#
# Revision: 1
# Processed by: cddbd v1.5.1PL2 Copyright (c) Steve Scherf et al.
# Submitted via: audiograbber 1.83.01
#
DISCID=b40ce30f
DTITLE=Music Maestro Top Country Hits 90's Vol 4 - Mm6022
DYEAR=1900
DGENRE=Karaoke
TTITLE0=Patty Loveless - Blame It On Your Heart
TTITLE1=Alan Jackson - Chattahoochee
TTITLE2=Alabama - I'm In A Hurry (And Don't Know Why)
TTITLE3=Billy Ray Cyrus - She's Not Crying Anymore
TTITLE4=Sammy Kershaw - She Don't Know She's Beautiful
TTITLE5=Mary Chapin Carpenter - Hard Way
TTITLE6=Confederate Railroad - Queen Of Memphis
TTITLE7=Garth Brooks - Learning To Live Again
TTITLE8=Lorrie Morgan - I Guess You Had To Be There
TTITLE9=Tracy Lawrence - Alibis
TTITLE10=Doug Stone - Made For Lovin' You
TTITLE11=Trisha Yearwood - You Say You Will
TTITLE12=Joe Diffie - Honky Tonk Attitude
TTITLE13=Wynonna Judd - Tell Me Why
TTITLE14=Brooks And Dunn - Hard Workin' Man
EXTD=
EXTT0=
EXTT1=
EXTT2=
EXTT3=
EXTT4=
EXTT5=
EXTT6=
EXTT7=
EXTT8=
EXTT9=
EXTT10=
EXTT11=
EXTT12=
EXTT13=
EXTT14=
PLAYORDER=
